# xmcd
#
# Track frame offsets:
#	150
#	20882
#	37600
#	52845
#	68517
#	89215
#	107652
#
# Disc length: 1686 seconds
#
# Revision: 1
# Processed by: cddbd v1.5.1PL0 Copyright (c) Steve Scherf et al.
# Submitted via: CDex 1.50Beta5
#
DISCID=51069407
DTITLE=Various Artist - 心に残る懐かしの歌声
DYEAR=1900
DGENRE=World
TTITLE0=ピンカラトリオ/女のみち
TTITLE1=佳山明生/氷雨
TTITLE2=黒澤年男/時には娼婦のように
TTITLE3=冠二郎/旅の終わりに
TTITLE4=大川栄策/さざんかの宿
TTITLE5=佐川満夫/今は幸せかい
TTITLE6=津山洋子/あなたまかせの夜だから
EXTD=
EXTT0=
EXTT1=
EXTT2=
EXTT3=
EXTT4=
EXTT5=
EXTT6=
PLAYORDER=
